<svg width="45" height="45" viewBox="0 0 45 45" fill="none" xmlns="http://www.w3.org/2000/svg">
<path d="M11.2441 33.75C13.9394 33.3496 16.4009 31.993 18.1796 29.9277C19.9582 27.8625 20.9354 25.2262 20.9328 22.5C20.9464 19.0778 22.1872 15.7742 24.4295 13.19C26.6719 10.6058 29.7669 8.91274 33.1515 8.41875L38.0052 7.725C37.874 7.575 37.7616 7.425 37.6116 7.275C31.5023 1.1625 19.7709 3 11.3753 11.3625C4.27276 18.5625 1.87401 28.125 5.17229 34.6125L11.2441 33.75Z" fill="black"/>
<path d="M23.8564 22.5C23.8441 25.9215 22.6066 29.2254 20.3683 31.8123C18.1301 34.3992 15.0392 36.0978 11.6565 36.6L7.04639 37.2563L7.32749 37.575C13.4368 43.6875 25.1682 41.8688 33.5638 33.5063C40.6289 26.4563 43.1026 16.875 39.8231 10.4812L33.5638 11.3812C30.8858 11.7705 28.4352 13.1053 26.6549 15.1444C24.8746 17.1835 23.8819 19.7926 23.8564 22.5Z" fill="black"/>
</svg>
